<svg xmlns="http://www.w3.org/2000/svg" viewBox="0 0 539.08 59.14"><defs><style>.cls-1{fill:#025157;}.cls-2{fill:#00ce7c;}</style></defs><g id="Layer_2" data-name="Layer 2"><g id="Layer_1-2" data-name="Layer 1"><path class="cls-1" d="M10.53,37.83c0,7.05,4.59,11,10,11a8.91,8.91,0,0,0,8.94-6.57l9.26,3.09C37,51.84,30.87,58.49,20.5,58.49,9,58.49,0,49.78,0,37.83S8.86,17.17,20.18,17.17c10.61,0,16.62,6.57,18.29,13.14l-9.42,3.17c-.95-3.25-3.41-6.57-8.63-6.57C15,26.91,10.53,30.79,10.53,37.83Z"/><path class="cls-1" d="M80.81,37.83c0,12-8.79,20.66-20.42,20.66S40,49.78,40,37.83s8.79-20.66,20.42-20.66S80.81,25.8,80.81,37.83Zm-10.53,0c0-7.36-4.75-11.08-9.89-11.08S50.5,30.47,50.5,37.83s4.75,11.08,9.89,11.08S70.28,45.19,70.28,37.83Z"/><path class="cls-1" d="M254.93,37.83c0,12-8.78,20.66-20.42,20.66s-20.42-8.71-20.42-20.66,8.79-20.66,20.42-20.66S254.93,25.8,254.93,37.83Zm-10.53,0c0-7.36-4.74-11.08-9.89-11.08s-9.89,3.72-9.89,11.08,4.75,11.08,9.89,11.08S244.4,45.19,244.4,37.83Z"/><path class="cls-1" d="M270.6,57.3H260.08V18.36h10.21v4.83c2.37-4,7-5.86,11.23-5.86,9.66,0,14.09,6.89,14.09,15.44V57.3H285.09V34.59c0-4.36-2.14-7.76-7.21-7.76-4.59,0-7.28,3.56-7.28,8.07Z"/><path class="cls-2" d="M351.74,18.36l8.39,25.09,7.2-25.09h10.45L365.59,57.3H355.07L346,30.71,337,57.3H326.34L313.91,18.36H325l7.2,25,8.47-25Z"/><path class="cls-2" d="M415.06,46.14c-2,6.73-8.15,12.35-17.73,12.35-10.68,0-20.1-7.68-20.1-20.82,0-12.42,9.18-20.5,19.15-20.5,12,0,19.23,7.68,19.23,20.19,0,1.5-.15,3.08-.15,3.24H387.6c.23,5.15,4.59,8.87,9.81,8.87,4.91,0,7.6-2.46,8.87-5.94ZM405.25,33.4c-.16-3.88-2.69-7.68-8.71-7.68a8.44,8.44,0,0,0-8.71,7.68Z"/><path class="cls-2" d="M430,34.9l9.58-1.42c2.21-.32,2.92-1.43,2.92-2.77,0-2.77-2.13-5.07-6.57-5.07s-7.12,2.93-7.43,6.34l-9.34-2c.63-6.1,6.25-12.83,16.7-12.83,12.34,0,16.93,7,16.93,14.81V51.13a43,43,0,0,0,.48,6.17h-9.66a27.1,27.1,0,0,1-.39-4.67c-2,3.09-5.7,5.78-11.48,5.78-8.31,0-13.38-5.62-13.38-11.71C418.38,39.73,423.53,35.85,430,34.9Zm12.5,6.65V39.81l-8.78,1.35c-2.69.39-4.83,1.9-4.83,4.9,0,2.3,1.66,4.52,5.07,4.52C438.41,50.58,442.52,48.44,442.52,41.55Z"/><path class="cls-2" d="M460.25,57.3V0h10.53V57.3Z"/><path class="cls-2" d="M491.83,18.36h7.84V27.7h-7.84V44c0,3.4,1.59,4.51,4.59,4.51a15.19,15.19,0,0,0,3.25-.32v8.71a15.74,15.74,0,0,1-5.94,1c-7.6,0-12.34-4.51-12.34-12V27.7h-7.05V18.36h2c4.12,0,6-2.69,6-6.17V6.73h9.5Z"/><path class="cls-2" d="M514.07,57.3H503.55V0h10.52V21.61c2.53-3,6.81-4.28,10.53-4.28,9.89,0,14.48,6.89,14.48,15.44V57.3H528.56V34.59c0-4.36-2.14-7.76-7.21-7.76-4.43,0-7,3.33-7.28,7.6Z"/><path class="cls-2" d="M84.45,59.14c8,0,10.32-10.17,12.81-20.94a106.75,106.75,0,0,1,2.94-10.92,106.75,106.75,0,0,1,2.94,10.92C105.63,49,108,59.14,116,59.14S126.28,49,128.77,38.2a106.75,106.75,0,0,1,2.94-10.92,106.72,106.72,0,0,1,2.93,10.92c2.5,10.77,4.85,20.94,12.82,20.94S157.78,49,160.27,38.2a104,104,0,0,1,2.94-10.91,106.53,106.53,0,0,1,2.93,10.91C168.63,49,171,59.14,179,59.14S189.28,49,191.77,38.2a104,104,0,0,1,2.94-10.91,106.53,106.53,0,0,1,2.93,10.91c2.49,10.77,4.84,20.94,12.81,20.94h1.35v-9.7c-1.48-1.45-3.23-9-4.28-13.53C205,25.14,202.67,15,194.71,15s-10.33,10.17-12.82,20.94A106.72,106.72,0,0,1,179,46.83,104.23,104.23,0,0,1,176,35.91C173.53,25.14,171.17,15,163.21,15s-10.33,10.17-12.82,20.94a106.72,106.72,0,0,1-2.93,10.92,106.75,106.75,0,0,1-2.94-10.92C142,25.14,139.68,15,131.71,15s-10.33,10.17-12.82,20.94A106.72,106.72,0,0,1,116,46.83,104.23,104.23,0,0,1,113,35.91C110.53,25.14,108.17,15,100.2,15S89.88,25.14,87.38,35.91c-1,4.52-2.79,12.08-4.28,13.52v9.71Z"/></g></g></svg>